<svg width="281" height="281" viewBox="0 0 281 281" fill="none" xmlns="http://www.w3.org/2000/svg">
<g filter="url(#filter0_d_6_39)">
<path d="M179.798 181.451C198.581 156.83 209.687 126.832 211.093 95.2962C211.127 94.5232 210.712 93.7898 210.034 93.4171L179.167 76.4484C177.833 75.7147 176.2 76.6803 176.2 78.2034L176.2 180.198C176.2 182.1 178.644 182.963 179.798 181.451Z" fill="#02E2AC"/>
<path d="M150.985 15.2449C146.13 12.5704 140.043 14.3501 137.383 19.1955C136.54 20.7302 136.188 22.3864 136.19 24.0213H136.146V249.324H136.19C136.188 250.959 136.54 252.616 137.383 254.15C139.207 257.465 142.634 259.337 146.169 259.337C147.797 259.337 149.455 258.941 150.985 258.1C212.86 224.075 251.301 159.071 251.301 88.4584V79.2797C251.301 73.8011 248.318 68.7571 243.517 66.1176L150.985 15.2449ZM231.274 88.4584C231.274 145.886 202.852 199.098 156.173 231.272V40.9551L229.198 81.098C230.478 81.8018 231.274 83.147 231.274 84.608V88.4584Z" fill="black"/>
<path d="M111.632 220.264C91.1601 204.664 76.1192 183.817 66.1339 160.441L110.927 135.817C115.772 133.152 117.542 127.065 114.877 122.215C112.217 117.374 106.13 115.599 101.275 118.264L59.2423 141.371C53.7197 122.866 51.0269 103.326 51.0269 83.9095V82.2392L110.414 49.5952C115.004 47.0723 117.381 41.4727 115.333 36.6512C112.98 31.1085 106.432 28.9358 101.275 31.7612L38.7839 66.1176C33.9825 68.7567 31 73.8013 31 79.2799V88.4584C31 145.297 55.8136 199.022 99.0797 235.859C100.967 237.467 103.275 238.249 105.568 238.249C108.399 238.249 111.215 237.052 113.195 234.729C116.904 230.374 116.237 223.773 111.632 220.264Z" fill="black"/>
<rect x="4.5" y="0.5" width="272" height="272" stroke="white" shape-rendering="crispEdges"/>
</g>
<defs>
<filter id="filter0_d_6_39" x="0" y="0" width="281" height="281" filterUnits="userSpaceOnUse" color-interpolation-filters="sRGB">
<feFlood flood-opacity="0" result="BackgroundImageFix"/>
<feColorMatrix in="SourceAlpha" type="matrix" values="0 0 0 0 0 0 0 0 0 0 0 0 0 0 0 0 0 0 127 0" result="hardAlpha"/>
<feOffset dy="4"/>
<feGaussianBlur stdDeviation="2"/>
<feComposite in2="hardAlpha" operator="out"/>
<feColorMatrix type="matrix" values="0 0 0 0 0 0 0 0 0 0 0 0 0 0 0 0 0 0 0.25 0"/>
<feBlend mode="normal" in2="BackgroundImageFix" result="effect1_dropShadow_6_39"/>
<feBlend mode="normal" in="SourceGraphic" in2="effect1_dropShadow_6_39" result="shape"/>
</filter>
</defs>
</svg>
