<svg width="281" height="281" viewBox="0 0 281 281" fill="none" xmlns="http://www.w3.org/2000/svg">
<g filter="url(#filter0_d_6_39)">
<path d="M179.662 180.814C198.445 156.193 209.551 126.196 210.957 94.6594C210.991 93.8865 210.576 93.1531 209.898 92.7803L179.031 75.8117C177.697 75.0779 176.064 76.0436 176.064 77.5666L176.064 179.561C176.064 181.463 178.508 182.326 179.662 180.814Z" fill="#02E2AC"/>
<path d="M150.849 14.6081C145.994 11.9337 139.907 13.7134 137.247 18.5588C136.404 20.0934 136.052 21.7497 136.054 23.3846H136.01V248.687H136.054C136.052 250.323 136.404 251.979 137.247 253.513C139.071 256.828 142.498 258.701 146.033 258.701C147.661 258.701 149.319 258.305 150.849 257.464C212.724 223.438 251.165 158.434 251.165 87.8217V78.643C251.165 73.1644 248.182 68.1203 243.381 65.4809L150.849 14.6081ZM231.138 87.8217C231.138 145.249 202.716 198.462 156.037 230.635V40.3183L229.062 80.4613C230.342 81.1651 231.138 82.5102 231.138 83.9713V87.8217V87.8217Z" fill="white"/>
<path d="M111.496 219.627C91.0241 204.028 75.9831 183.18 65.9978 159.804L110.791 135.18C115.636 132.515 117.406 126.428 114.741 121.578C112.081 116.737 105.994 114.963 101.139 117.627L59.1062 140.735C53.5836 122.229 50.8908 102.689 50.8908 83.2727V81.6024L110.278 48.9585C114.868 46.4355 117.245 40.836 115.197 36.0144C112.844 30.4717 106.296 28.299 101.139 31.1245L38.6478 65.4809C33.8465 68.1199 30.8639 73.1646 30.8639 78.6431V87.8217C30.8639 144.661 55.6775 198.385 98.9436 235.222C100.831 236.83 103.139 237.613 105.432 237.613C108.263 237.613 111.079 236.415 113.059 234.092C116.768 229.737 116.1 223.136 111.496 219.627Z" fill="white"/>
<rect x="4.5" y="0.5" width="272" height="272" stroke="white" shape-rendering="crispEdges"/>
</g>
<defs>
<filter id="filter0_d_6_39" x="0" y="0" width="281" height="281" filterUnits="userSpaceOnUse" color-interpolation-filters="sRGB">
<feFlood flood-opacity="0" result="BackgroundImageFix"/>
<feColorMatrix in="SourceAlpha" type="matrix" values="0 0 0 0 0 0 0 0 0 0 0 0 0 0 0 0 0 0 127 0" result="hardAlpha"/>
<feOffset dy="4"/>
<feGaussianBlur stdDeviation="2"/>
<feComposite in2="hardAlpha" operator="out"/>
<feColorMatrix type="matrix" values="0 0 0 0 0 0 0 0 0 0 0 0 0 0 0 0 0 0 0.25 0"/>
<feBlend mode="normal" in2="BackgroundImageFix" result="effect1_dropShadow_6_39"/>
<feBlend mode="normal" in="SourceGraphic" in2="effect1_dropShadow_6_39" result="shape"/>
</filter>
</defs>
</svg>
